name new_emg_signals
nRows=45
nColumns=7
 
endheader
time	RGLTMED	RRF	RADDLONG	RBF	RTA	RGM
1.129999999999976	0.8571418006230169	0.9007226721959676	0.4222197347525069	0.8705048919652176	0.8727959088919415	0.9598019906170024
1.1399999999999757	0.8566884214719265	0.8981894736730844	0.4213592624048071	0.8701102069124057	0.8756435080647946	0.9582086438440124
1.1499999999999755	0.8562767490761914	0.8957256816224828	0.420435118966631	0.8697127245152414	0.8785332720439502	0.9565841099555916
1.159999999999977	0.8559120210654726	0.8933328043024458	0.4194491641640827	0.8693161890282096	0.8814642798065534	0.9549350189621384
1.1699999999999768	0.8555992709294761	0.891012027998235	0.4184032540514818	0.8689241684057477	0.8844353330061074	0.9532678806372464
1.1799999999999766	0.8553433176647012	0.8887642259851802	0.4172992378093589	0.8685400487823652	0.887444958527768	0.95158907201254
1.1899999999999746	0.8551487559117696	0.8865899682990338	0.4161389546859965	0.868167029532631	0.8904914117809041	0.9499048250667658
1.1999999999999744	0.855019946612755	0.8844895322750548	0.4149242310885814	0.8678081189173783	0.8935726807152787	0.9482212146500744
1.2099999999999742	0.8549610082150948	0.8824629138141157	0.4136568778286004	0.8674661303198936	0.8966864905450413	0.9465441466824978
1.219999999999974	0.854975808445908	0.8805098393312722	0.4123386875247608	0.8671436790749059	0.8998303091621433	0.9448793466644564
1.2299999999999738	0.8550679566780486	0.8786297783392516	0.4109714321653422	0.8668431798918866	0.9030013532181318	0.9432323485361088
1.2399999999999718	0.8552407969071418	0.8768219566166566	0.4095568608305958	0.8665668448733874	0.9061965948505334	0.9416084839223876
1.2499999999999716	0.8554974013570642	0.8750853699080786	0.4080966975745487	0.8663166821274678	0.9094127690279138	0.9400128718010856
1.2599999999999714	0.8558405647293238	0.873418798101034	0.4065926394645823	0.8660944949720683	0.9126463814863944	0.9384504086314288
1.269999999999973	0.8562727991101634	0.871820819822269	0.4050463547763884	0.865901881727747	0.915893717229837	0.936925758979491
1.2799999999999727	0.8567963295472285	0.8702898273936737	0.4034594813414871	0.8657402360940404	0.9191508495657128	0.935443346674929
1.2899999999999725	0.8574130903063472	0.8688240420856468	0.4018336250445854	0.8656107481041264	0.922413649647826	0.9340073465317184
1.2999999999999723	0.858124721817361	0.8674215296038861	0.400170358468717	0.8655144056524057	0.9256777964964332	0.9326216766642036
1.309999999999972	0.8589325683165817	0.8660802157443012	0.398471219687081	0.8654519965896602	0.9289387874656324	0.9312899914286096
1.3199999999999719	0.8598376761918209	0.8647979021503183	0.396737711201431	0.865424111380984	0.9321919491281496	0.9300156750182844
1.3299999999999716	0.8608407930341446	0.8635722821067497	0.3949712990275347	0.8654311463217543	0.9354324485480318	0.9288018357389112
1.3399999999999714	0.8619423673984388	0.8624009563050312	0.3931734119283841	0.865473307306085	0.9386553049126378	0.927651300987554
1.349999999999973	0.8631425492726047	0.8612814485153921	0.3913454407958536	0.8655506141417143	0.9418554014959384	0.9265666129570124
1.359999999999971	0.8644411912532983	0.8602112211022326	0.3894887381814786	0.8656629054036117	0.9450274979259602	0.9255500250843064
1.3699999999999708	0.8658378504244205	0.8591876903193891	0.3876046179770082	0.8658098438170145	0.9481662427302632	0.9246034992598018
1.3799999999999706	0.8673317909338945	0.8582082413219047	0.3856943552455662	0.8659909221590613	0.9512661861349384	0.9237287038113944
1.3899999999999704	0.8689219872636657	0.8572702428304197	0.3837591862046423	0.8662054696667747	0.9543217930938688	0.9229270122761202
1.3999999999999702	0.8706071281874366	0.8563710613839902	0.3818003083626397	0.8664526589377739	0.9573274565254328	0.9221995029696456
1.40999999999997	0.8723856214097689	0.8555080751179265	0.3798188808114264	0.866731513308298	0.9602775107337658	0.9215469593617548
1.4199999999999697	0.8742555988789972	0.8546786870065312	0.37781602467784	0.8670409146911199	0.9631662449911524	0.920969871263382
1.4299999999999695	0.8762149227650917	0.8538803375160828	0.3757928237371541	0.8673796118536672	0.9659879172580672	0.920468436828243
1.4399999999999675	0.8782611920924284	0.8531105166206322	0.3737503251909083	0.867746229113977	0.968736768018026	0.9200425653695322
1.449999999999969	0.8803917500159752	0.852366775140778	0.3716895406103827	0.8681392754301563	0.9714070342062524	0.9196918809897168
1.4599999999999689	0.8826036917282025	0.8516467353728804	0.3696114470457712	0.8685571538564234	0.9739929632136284	0.919415727018827
1.4699999999999687	0.8848938729827192	0.8509481009814701	0.3675169883000264	0.8689981713371854	0.9764888269493612	0.9192131712537333
1.4799999999999685	0.8872589192200163	0.8502686661308738	0.3654070763655691	0.8694605488082676	0.9788889359467274	0.919083011988022
1.4899999999999682	0.8896952352801172	0.8496063238336324	0.363282593021687	0.8699424315722476	0.9811876534960556	0.919023784819279
1.499999999999968	0.8921990156865571	0.848959073495376	0.3611443915900956	0.8704418999117572	0.9833794097882674	0.9190337702177837
1.5099999999999678	0.8947662554852835	0.8483250276400814	0.3589932988458832	0.8709569799022229	0.9854587160508658	0.9191110018379935
1.5199999999999676	0.8973927616208944	0.8477024178057595	0.3568301170809062	0.871485654383342	0.9874201786564456	0.9192532755511575
1.5299999999999674	0.9000741648305468	0.8470895996066591	0.3546556263165623	0.8720258740477748	0.9892585131815932	0.9194581591748008
1.539999999999969	0.9028059320331928	0.8464850569615864	0.3524705866628727	0.8725755686062945	0.990968558391724	0.9197230028720592
1.5499999999999687	0.9055833791890496	0.845887405489722	0.3502757408205327	0.873132657990172	0.9925452901250748	0.9200449501911636
1.5599999999999685	0.9084016846012078	0.8452953950757089	0.348071816722161	0.8736950635533461	0.9939838350469448	0.9204209497127798
1.5699999999999665	0.9112559026286744	0.8447079116077132	0.3458595303082796	0.8742607192375752	0.9952794842435636	0.9208477672703632
